<?xml version="1.0" encoding="utf-8"?>
<!-- Generator: Adobe Illustrator 25.2.1, SVG Export Plug-In . SVG Version: 6.00 Build 0)  -->
<svg version="1.1" id="Livello_1" xmlns="http://www.w3.org/2000/svg" xmlns:xlink="http://www.w3.org/1999/xlink" x="0px" y="0px"
	 viewBox="0 0 34.136 32" style="enable-background:new 0 0 34.136 32;" xml:space="preserve">
<style type="text/css">
	.st0{fill:#6C6C70;}
</style>
<path class="st0" d="M15.624,6.4c1.0985,0,1.989,0.8905,1.989,1.989s-0.8905,1.989-1.989,1.989s-1.989-0.8905-1.989-1.989l0,0
	c-0.0044-1.0941,0.8789-1.9846,1.973-1.989C15.6133,6.4,15.6187,6.4,15.624,6.4z M22.585,12.035
	c-1.463,0.2204-2.9405,0.3314-4.42,0.332c-0.221,0-0.442,0.331-0.442,0.552v4.53l2.432,7.851
	c0.149,0.3964-0.0478,0.8391-0.442,0.994c-0.0884,0.0849-0.2104,0.1253-0.332,0.11c-0.2926,0.009-0.5587-0.1685-0.663-0.442
	l-2.652-6.192c-0.11-0.442-0.663-0.442-0.884,0l-2.652,6.188c-0.1172,0.2629-0.3752,0.4349-0.663,0.442
	c-0.11,0-0.221-0.11-0.331-0.11c-0.442-0.11-0.552-0.552-0.442-0.994l2.431-7.846v-4.531c0.0276-0.2737-0.1689-0.5191-0.442-0.552
	c-1.437-0.111-2.983-0.111-4.42-0.332C8.252,11.9476,7.9688,11.57,8,11.151c0.0874-0.411,0.465-0.6942,0.884-0.663
	c2.2396,0.2244,4.4892,0.3348,6.74,0.331c2.2508,0.0038,4.5004-0.1066,6.74-0.331c0.442,0,0.884,0.221,0.884,0.663
	c0,0.442-0.22,0.884-0.662,0.884H22.585z M27.2286,25.9193c-0.2043,0.231-0.4006,0.4667-0.6216,0.6877
	c-5.8581,5.8581-15.3559,5.8581-21.214,0c-2.8135-2.8133-4.394-6.6291-4.3938-10.6078C0.9996,7.7149,7.7158,0.9996,16,1
	c3.9805-0.0113,7.8,1.5706,10.607,4.393c2.8505,2.8505,4.3024,6.563,4.3788,10.2984c0.3469,0.0877,0.6835,0.21,1.0112,0.3662
	C31.9971,16.0381,32,16.0195,32,16c0-8.8365-7.1635-16-16-16S0,7.1635,0,16s7.1635,16,16,16c4.9128,0,9.3035-2.2188,12.2385-5.7038
	C27.8917,26.2051,27.5557,26.0792,27.2286,25.9193z M32.818,17.8177c-1.7574-1.7574-4.6066-1.7574-6.364,0
	c-1.7574,1.7573-1.7574,4.6066,0,6.364c1.7573,1.7573,4.6066,1.7573,6.364,0C34.5754,22.4243,34.5754,19.5751,32.818,17.8177z
	 M31.3026,21.9597c0.1953,0.1953,0.1953,0.5118,0,0.7072c-0.1953,0.1953-0.5118,0.1953-0.7071,0l-0.9595-0.9595l-0.9595,0.9595
	c-0.1953,0.1953-0.5118,0.1953-0.7071,0s-0.1953-0.5118,0-0.7071l0.9595-0.9595l-0.9596-0.9595
	c-0.1953-0.1953-0.1953-0.5118,0-0.7071s0.5118-0.1953,0.7072,0l0.9595,0.9595l0.9596-0.9596c0.1953-0.1953,0.5118-0.1953,0.7071,0
	s0.1953,0.5118,0,0.7072l-0.9596,0.9595L31.3026,21.9597z"/>
</svg>
