<?xml version="1.0" encoding="utf-8"?>
<!-- Generator: Adobe Illustrator 25.0.0, SVG Export Plug-In . SVG Version: 6.00 Build 0)  -->
<svg version="1.1" id="Layer_1" xmlns="http://www.w3.org/2000/svg" xmlns:xlink="http://www.w3.org/1999/xlink" x="0px" y="0px"
	 viewBox="0 0 17.1 27" style="enable-background:new 0 0 17.1 27;" xml:space="preserve">
<style type="text/css">
	.st0{fill:#3A262A;}
</style>
<path class="st0" d="M14.6,2.5c-3.4-3.3-8.8-3.3-12.1,0C0.9,4.1,0,6.3,0,8.6c0.2,2.4,0.9,4.7,2.1,6.9c1.2,2.2,4.6,8.2,6.5,11.6
	c1.9-3.3,5.2-9.2,6.6-11.6c1.1-2.1,1.8-4.4,1.9-6.8C17.1,6.3,16.2,4.1,14.6,2.5L14.6,2.5z M11.8,11.9c-1.8,1.8-4.7,1.8-6.5,0
	C4.5,11,4,9.9,4,8.7c0-0.6,0.1-1.2,0.4-1.8c0.2-0.5,0.6-1,1-1.4c1.7-1.8,4.6-1.9,6.4-0.1c1.8,1.7,1.9,4.6,0.1,6.4
	C11.9,11.8,11.8,11.9,11.8,11.9L11.8,11.9z"/>
</svg>
