<?xml version="1.0" encoding="utf-8"?>
<!-- Generator: Adobe Illustrator 25.0.0, SVG Export Plug-In . SVG Version: 6.00 Build 0)  -->
<svg version="1.1" id="Layer_1" xmlns="http://www.w3.org/2000/svg" xmlns:xlink="http://www.w3.org/1999/xlink" x="0px" y="0px"
	 viewBox="0 0 215.9 91" style="enable-background:new 0 0 215.9 91;" xml:space="preserve">
<style type="text/css">
	.st0{fill:#1A1818;}
	.st1{fill:#1A1818;stroke:#000000;stroke-width:0.1;stroke-miterlimit:10;}
</style>
<g id="logo" transform="translate(0.175)">
	<g>
		<path class="st0" d="M51.6,15.8c-2.1-3.5-2.1-7.9-0.1-11.4l0.1-0.2c1-1.9,2.9-3.1,5.1-3.2l0,0c1.4,0,2.7,0.4,3.9,1
			c2,1.3,3.6,3.2,4.5,5.4V4c0-0.8-1.2-1.6-1.2-1.6c-2-1.5-4.5-2.3-7-2.3c-0.9,0-1.7,0.1-2.6,0.3c-5.3,1.2-8.7,6.5-7.5,11.8
			c0.9,4,4.3,7.1,8.4,7.6c0.6,0.1,1.1,0.1,1.7,0.1c2.7,0,5.4-1,7.5-2.7l0.3-0.3c0.3-0.3,0.4-0.8,0.4-1.2v-2.8c0-0.8,0.4-1.5,1-2
			h-5.2c0.7,0.5,1,1.2,1,2v2.6c0,0.5-0.2,1-0.6,1.3c-0.6,0.5-1.3,1-2.1,1.3c-0.8,0.4-1.8,0.7-2.7,0.7C54.4,18.7,52.6,17.6,51.6,15.8
			z"/>
		<path class="st0" d="M104.7,9.9c0,4.6,3.2,8.6,7.7,9.6c0.9,0.2,1.7,0.3,2.6,0.3c2.5,0,5-0.8,7-2.3c0,0,1.2-0.7,1.2-1.5l0.5-3.6
			c-0.9,2.4-2.6,4.3-4.9,5.4c-1.2,0.6-2.5,1-3.9,1l0,0c-2.1,0-4.1-1.2-5.1-3.1l-0.1-0.2c-1.9-3.5-1.9-7.7,0-11.2l0.1-0.2
			c1-1.9,2.9-3.1,5.1-3.2l0,0c1.4,0,2.7,0.4,3.9,1c2,1.3,3.6,3.2,4.5,5.4V3.9c0-0.8-1.2-1.6-1.2-1.6c-2-1.5-4.5-2.3-7-2.3
			c-0.9,0-1.7,0.1-2.6,0.3C108,1.3,104.7,5.3,104.7,9.9"/>
		<path class="st0" d="M135,9.9c0,4.6,3.2,8.6,7.7,9.6c0.9,0.2,1.7,0.3,2.6,0.3c2.5,0,5-0.8,7-2.3c0,0,1.2-0.7,1.2-1.5l0.5-3.6
			c-0.9,2.4-2.6,4.3-4.9,5.4c-1.2,0.6-2.5,1-3.9,1l0,0c-2.1,0-4.1-1.2-5.1-3.1l-0.1-0.2c-1.9-3.5-1.9-7.7,0-11.2l0.1-0.2
			c1-1.9,2.9-3.1,5.1-3.2l0,0c1.4,0,2.7,0.4,3.9,1c2,1.3,3.6,3.2,4.5,5.4V3.9c0-0.8-1.2-1.6-1.2-1.6c-2-1.5-4.5-2.3-7-2.3
			c-0.9,0-1.7,0.1-2.6,0.3C138.3,1.3,135,5.3,135,9.9"/>
		<path class="st0" d="M169.1,0.9H164c0.6,0.5,1,1.2,1,2v15c0,0.8-0.4,1.5-1,2h5c-0.6-0.5-1-1.2-1-2v-15
			C168.1,2.1,168.5,1.4,169.1,0.9"/>
		<path class="st0" d="M81.5,0.9h-5.1c0.6,0.5,1,1.2,1,2l0,0v11.2c0.2,2,1.4,3.7,3.2,4.6l0,0c3,1.5,6.6,1.5,9.6,0l0,0
			c1.8-0.9,3-2.6,3.2-4.6l0,0V2.8c0-0.8,0.4-1.5,1-2h-3c0.6,0.5,1,1.2,1,2V14l0,0c-0.1,1.2-0.7,2.3-1.6,3.1l0,0
			c-1.3,0.9-2.8,1.4-4.4,1.4c-1,0-2-0.2-2.9-0.6h-0.1c-1.7-0.6-2.8-2.1-3-3.9V2.9l0,0C80.5,2.1,80.9,1.4,81.5,0.9"/>
	</g>
	<g>
		<path class="st0" d="M29.8,39.5c-1.6-3.6-4.6-6.4-8.4-7.7c-3.8-1.4-8.1-1.4-11.9,0c-3.7,1.3-6.7,4.1-8.4,7.7
			c-1.7,3.9-1.7,8.3,0,12.2c0.8,1.8,2,3.4,3.4,4.7c1.5,1.3,3.2,2.3,5,3c3.8,1.4,8.1,1.4,11.9,0c1.8-0.7,3.5-1.7,5-3
			c1.4-1.3,2.6-2.9,3.4-4.7C31.5,47.8,31.5,43.4,29.8,39.5 M25.5,51.1c-0.5,1.5-1.3,2.9-2.4,4.1c-0.9,1.1-2.1,2-3.4,2.6
			c-2.6,1.2-5.6,1.2-8.2,0c-1.3-0.6-2.5-1.5-3.4-2.6c-1-1.2-1.8-2.6-2.4-4.1c-1.2-3.6-1.2-7.4,0-11C6.2,38.6,7,37.2,8.1,36
			c0.9-1.1,2.1-2,3.4-2.6c2.6-1.2,5.6-1.2,8.2,0c1.3,0.6,2.5,1.5,3.4,2.6c1,1.2,1.8,2.6,2.4,4.1c0.6,1.8,0.9,3.6,0.9,5.5
			C26.4,47.5,26.1,49.3,25.5,51.1 M60.8,47.8c-0.8-1.1-1.7-2-2.8-2.8c-1.1-0.8-2.3-1.4-3.6-1.9c-1.3-0.5-2.5-1.1-3.6-1.6
			c-1-0.5-2-1.1-2.8-1.9c-0.7-0.8-1.1-1.8-1.1-2.8c0-1.2,0.5-2.3,1.4-3.1c1-0.9,2.4-1.4,3.8-1.3c0.8,0,1.5,0.1,2.3,0.3
			c0.8,0.2,1.5,0.5,2.2,0.9c0.7,0.4,1.4,1,1.9,1.6c0.7,0.7,1.2,1.6,1.5,2.5l0.2-0.2L59.9,33c-0.9-0.8-1.9-1.4-3.1-1.7
			c-1.4-0.4-2.9-0.6-4.4-0.6c-1.2,0-2.4,0.2-3.5,0.5c-1,0.3-2,0.8-2.9,1.4c-0.8,0.7-1.5,1.5-2,2.4c-0.5,1.1-0.7,2.2-0.7,3.4
			c-0.1,1.3,0.3,2.6,1.1,3.6c0.7,1,1.7,1.8,2.7,2.4c1.1,0.7,2.3,1.3,3.5,1.8c1.2,0.5,2.4,1.1,3.5,1.7c1,0.6,1.9,1.3,2.7,2.1
			c0.7,0.8,1.1,1.9,1.1,3c0.1,1.6-0.5,3.1-1.7,4.2c-1.2,1-2.8,1.5-4.4,1.4c-0.8,0-1.6-0.1-2.4-0.4c-0.9-0.2-1.7-0.6-2.4-1.1
			c-0.8-0.6-1.6-1.3-2.3-2c-0.8-0.9-1.4-1.9-1.9-3l-0.3,0.1l0.7,5.3c0.5,0.5,1.1,0.8,1.7,1.1c0.7,0.3,1.4,0.6,2.1,0.8
			c0.8,0.2,1.6,0.4,2.4,0.5c0.8,0.1,1.6,0.2,2.4,0.2c1.3,0,2.6-0.2,3.9-0.5c1.2-0.3,2.3-0.9,3.2-1.6c2-1.4,3.1-3.8,3-6.2
			C61.9,50.4,61.6,49,60.8,47.8 M96.6,35.7c-0.1-0.3-0.2-0.6-0.3-0.9c-0.1-0.4-0.3-0.8-0.4-1.2s-0.3-0.9-0.4-1.3
			c-0.1-0.2-0.2-0.5-0.2-0.7H72.9c0,0.2-0.1,0.5-0.2,0.7c-0.1,0.4-0.3,0.8-0.4,1.3s-0.3,0.9-0.4,1.3c-0.1,0.3-0.2,0.6-0.3,0.9
			l0.2,0.2c1.5-1.1,3.1-1.9,4.9-2.3c1.7-0.4,3.5-0.6,5.3-0.7v22.5c0,0.7,0,1.4-0.1,2.1c0,0.5-0.1,0.9-0.4,1.3l-0.9,0.6v0.2
			c0.2,0,0.5-0.1,0.7-0.1c0.3,0,0.7,0,1-0.1c0.4-0.1,0.7-0.1,1.1,0h2.5c0.3,0,0.7,0,1,0.1c0.2,0.1,0.5,0.1,0.7,0.1v-0.2
			c-0.3-0.2-0.6-0.4-0.9-0.6c-0.3-0.4-0.5-0.8-0.5-1.3c0-0.7,0-1.4-0.1-2.1V33c1.8,0,3.5,0.2,5.2,0.6c1.8,0.4,3.4,1.2,4.9,2.3
			L96.6,35.7z M127.2,55.4c-0.9,0.7-1.9,1.2-3,1.5c-1.2,0.4-2.4,0.7-3.6,0.9c-1.3,0.2-2.7,0.3-4,0.4c-1.4,0.1-2.9,0.1-4.3,0
			c0-0.7,0-1.5-0.1-2.2c-0.1-0.9-0.1-1.7,0-2.6v-7.6c2.1,0,3.8,0,5,0.1c1,0,1.9,0.1,2.9,0.3c0.5,0.1,1,0.3,1.4,0.7
			c0.3,0.3,0.5,0.7,0.6,1.1l0.2-0.1c-0.1-0.4-0.1-0.9-0.1-1.3v-2.9c0-0.4,0.1-0.9,0.1-1.4l-0.2-0.1c-0.1,0.4-0.3,0.8-0.6,1.1
			c-0.4,0.4-0.9,0.6-1.4,0.7c-1,0.2-1.9,0.3-2.9,0.4c-1.3,0.1-2.9,0.1-5,0.1v-8.8c0-0.8,0-1.7,0.1-2.8c1.3-0.1,2.5-0.1,3.7-0.1
			c1.1,0,2.3,0.1,3.4,0.4c1.1,0.2,2.1,0.5,3.1,1c1,0.5,1.9,1.1,2.7,1.8l0.2-0.3c-0.1-0.3-0.2-0.6-0.3-0.9c-0.1-0.4-0.3-0.8-0.4-1.2
			c-0.2-0.4-0.3-0.8-0.4-1.2c-0.1-0.3-0.1-0.5-0.2-0.8h-15.8c-0.3,0-0.7,0-1-0.1c-0.2,0-0.5,0-0.7-0.1v0.2c0.3,0.2,0.6,0.4,0.9,0.6
			c0.3,0.4,0.5,0.8,0.5,1.3c0,0.7,0,1.4,0.1,2.1v20c0,0.7,0,1.4-0.1,2.1c0,0.5-0.2,1-0.5,1.3c-0.3,0.2-0.6,0.4-0.9,0.6v0.2
			c0.2,0,0.5-0.1,0.7-0.1c0.3,0,0.7,0,1-0.1c0.3-0.1,0.7-0.1,1,0h16.4c0-0.3,0.1-0.5,0.3-0.7l0.6-1.2l0.6-1.2
			c0.1-0.2,0.2-0.5,0.4-0.7L127.2,55.4z M158.8,59c-0.6,0.2-1.3,0-1.8-0.4c-0.7-0.6-1.3-1.2-1.8-1.9c-0.7-0.9-1.3-1.8-1.8-2.8
			c-0.6-1.1-1.2-2.1-1.9-3.1c-0.6-1-1.3-1.9-2.1-2.7c-0.7-0.7-1.5-1.3-2.4-1.7c1.1-0.2,2.2-0.5,3.3-0.9c1-0.4,1.9-0.9,2.7-1.6
			c0.8-0.6,1.4-1.4,1.8-2.3c0.5-1,0.7-2,0.7-3.1c0-2-1-3.9-2.6-5c-1-0.7-2.2-1.2-3.4-1.5c-1.6-0.4-3.3-0.6-5-0.6h-5.8
			c-0.4,0-0.9,0-1.3,0.1v0.2c0.3,0,0.6,0.2,0.9,0.4c0.3,0.4,0.5,0.8,0.4,1.3c0,0.7,0.1,1.4,0.1,2.1v20c0,0.7,0,1.4-0.1,2.1
			c0,0.5-0.2,1-0.5,1.3c-0.3,0.2-0.6,0.4-0.9,0.6v0.2c0.2,0,0.5-0.1,0.7-0.1c0.4,0,0.7,0,1.1-0.1c0.4-0.1,0.7-0.1,1.1,0h2.5
			c0.3,0,0.7,0,1,0.1c0.2,0.1,0.5,0.1,0.7,0.1v-0.2c-0.3-0.1-0.7-0.3-0.9-0.6c-0.3-0.3-0.5-0.8-0.4-1.3c0-0.6,0-1.2-0.1-1.8v-9.3
			h1.1c0.8,0.2,1.4,0.6,1.8,1.3c0.5,0.8,1,1.7,1.3,2.6c0.4,1,0.8,2,1.2,3.1c0.4,1.1,0.9,2.1,1.5,3.1c0.6,0.9,1.3,1.7,2.2,2.3
			c1,0.7,2.2,1,3.4,0.9c0.6,0,1.1,0,1.7-0.1c0.5,0,1.1-0.3,1.5-0.6L158.8,59z M150.3,41.8c-0.4,0.8-1.1,1.5-1.8,2
			c-0.8,0.5-1.6,0.8-2.5,1c-0.9,0.2-1.9,0.2-2.8,0.1v-7.2c0-2,0-3.6,0.1-4.9c0.9,0,1.9,0.1,2.8,0.2c0.9,0.1,1.7,0.4,2.5,0.8
			c0.7,0.4,1.3,1,1.8,1.7c0.5,0.9,0.7,1.9,0.7,2.9C151,39.6,150.8,40.7,150.3,41.8 M176.3,59.5c-0.3-0.1-0.7-0.3-0.9-0.6
			c-0.3-0.3-0.5-0.8-0.4-1.3c0-0.7-0.1-1.4-0.1-2.1v-20c0-0.7,0-1.4,0.1-2.1c0-0.5,0.1-0.9,0.4-1.3l0.9-0.6v-0.2
			c-0.2,0-0.5,0.1-0.7,0.1c-0.3,0-0.7,0-1,0.1c-0.3,0.1-0.7,0.1-1,0H171c-0.3,0-0.7,0-1-0.1c-0.2,0-0.5,0-0.7-0.1v0.2
			c0.3,0.2,0.6,0.4,0.9,0.6c0.3,0.4,0.5,0.8,0.5,1.3c0,0.7,0.1,1.4,0.1,2.1v20c0,0.7,0,1.4-0.1,2.1c0,0.5-0.2,1-0.5,1.3
			c-0.3,0.2-0.6,0.4-0.9,0.6v0.2c0.2,0,0.4-0.1,0.7-0.1c0.3,0,0.7,0,1-0.1c0.3-0.1,0.7-0.1,1,0h3.5c0.2,0,0.5,0,0.7,0.1L176.3,59.5z
			 M215.7,59.5c-0.5-0.2-0.9-0.5-1.3-0.9c-0.5-0.5-0.9-1-1.2-1.6c-0.3-0.7-0.7-1.3-1-2s-0.7-1.4-1.1-2.2s-0.8-1.8-1.4-2.8
			c-0.5-1.1-1.2-2.4-2-4.1c-0.8-1.6-1.5-3.2-2.2-4.7s-1.3-2.9-1.9-4.1c-0.6-1.3-1.1-2.4-1.6-3.4s-0.8-1.9-1.1-2.5h-0.6
			c-0.3,0.7-0.6,1.5-1.1,2.5s-1,2.2-1.6,3.4c-0.6,1.3-1.2,2.7-1.9,4.1s-1.4,3-2.2,4.7c-0.8,1.6-1.4,3-2,4.1s-1,2.1-1.4,3
			s-0.8,1.6-1.1,2.3s-0.7,1.3-1,2c-0.4,1-1.3,1.8-2.3,2.2v0.2c0.4-0.1,0.9-0.1,1.3-0.1h2.8c0.5,0,0.9,0.1,1.4,0.1v-0.2
			c-0.1-0.1-0.3-0.1-0.5-0.2c-0.4-0.1-0.7-0.4-0.8-0.8c0-0.3,0-0.5,0.1-0.8c0.2-0.5,0.4-1,0.6-1.4s0.4-1,0.6-1.5s0.4-1.1,0.7-1.7
			s0.5-1.3,0.8-2.1h12.5c0.7,1.5,1.3,2.8,1.8,3.8s0.9,2,1.3,2.9c0.1,0.3,0.1,0.5,0.1,0.8c0,0.2-0.1,0.4-0.3,0.5
			c-0.1,0.2-0.3,0.3-0.5,0.3c-0.2,0.1-0.3,0.2-0.5,0.2v0.2c0.2,0,0.5-0.1,0.9-0.1c0.4,0,0.9,0,1.3-0.1c0.4-0.1,0.9-0.1,1.3,0h2.9
			c0.4,0,0.7,0,1.1,0.1c0.3,0.1,0.5,0.1,0.8,0.1L215.7,59.5z M193.5,49.5l1.6-3.5c0.6-1.3,1.1-2.4,1.5-3.3c0.4-0.8,0.7-1.6,1-2.2
			l0.7-1.7c0.3-0.6,0.6-1.2,0.9-1.8c0.3,0.7,0.6,1.3,0.8,1.7c0.2,0.5,0.4,1,0.6,1.5c0.2,0.6,0.6,1.3,0.9,2.1
			c0.4,0.9,0.9,2.1,1.7,3.7l1.6,3.6L193.5,49.5z"/>
	</g>
	<g transform="translate(-18.262 -3.646)">
		<path class="st1" d="M56,86.4c-1.5,0-4.2,3.9-4.2,5.8c0,0.4,0.3,0.8,0.6,1h0.2c1.6,0,4.1-4.4,4.1-6C56.7,86.8,56.4,86.4,56,86.4
			 M56.5,91.6c-0.5,1.1-0.3,1.3,0,1.3c0.5,0,1.9-1.5,2.1-1.5v0.2c-0.2,0.3-2.3,2.6-3.1,2.6c-0.6,0-0.6-0.8-0.2-2.4l0.5-1.3
			c0,0-0.2-0.2-0.2,0c-1.3,2.4-2.6,3.9-4.1,3.9c-0.8,0-1.5-0.7-1.5-1.5c0,0,0-0.1,0-0.1l0,0c0-2.4,3.2-6.5,5.7-6.5
			c0.5,0,1,0.3,1.1,0.8c0.6-1.6,1.3-3.1,2.1-5.5c0.3-0.8,0-1.3-1.5-1.3c-0.1,0-0.2-0.1-0.2-0.2c0,0,0,0,0,0c0-0.2,0-0.2,0.2-0.2
			c1-0.2,3.1-0.3,3.2-0.3s0.2,0.2,0.2,0.3C59.1,84.8,57.5,89.1,56.5,91.6"/>
		<path class="st1" d="M65.4,86.2c-1.6,0-4.1,4.2-4.1,5.8c0,0.6,0.3,1,0.6,1c0.6-0.1,1.1-0.5,1.5-1c1.2-1.6,2.1-3.3,2.6-5.2
			C66.1,86.7,65.9,86.4,65.4,86.2L65.4,86.2 M65.8,91.7c-0.3,1-0.3,1.3,0,1.3c0.5,0,1.5-1.3,1.8-1.3l0,0c-0.6,1.1-1.9,2.4-2.8,2.4
			c-0.2,0-0.5-0.1-0.5-0.4c0,0,0-0.1,0-0.1v-0.2c0-0.5,0.1-1,0.3-1.5l0.3-1.1c0,0-0.2-0.2-0.2,0c-1.1,1.9-2.4,3.2-3.4,3.2
			c-0.7,0-1.3-0.6-1.3-1.3c0,0,0-0.1,0-0.1l0,0c0-2.8,3.1-6.6,5.4-6.6c0.4,0,0.7,0.1,1,0.3c0.2,0,0.2,0.2,0.2,0
			c0.3-0.3,0.5-0.6,0.6-0.8c0.2-0.2,1,0,1,0.2L65.8,91.7z"/>
		<path class="st1" d="M89.9,81c-0.6,0.5-0.8,0.8-1.5,6.3c-0.6,5.7-0.6,6.2-0.5,6.3c0.3,0.2,0.8,0.2,1.1,0.3c0.2,0,0.2,0.3,0,0.3
			h-4.7c-0.2,0-0.2-0.2,0-0.3c0.4,0,0.9-0.1,1.3-0.3c0.5-0.2,0.6-0.6,1.3-6.3c0.2-1.8,0.5-3.2,0.6-4.4h-0.2
			c-1.6,2.4-4.7,7.5-7.1,11.5c0,0.2-0.3,0.2-0.3,0c-0.3-4.2-0.8-9.1-1-11.4h-0.2c-0.5,1.1-1.1,2.6-1.8,4.4c-2.3,5.7-2.3,6.2-2.1,6.3
			c0.2,0.2,0.6,0.2,1.1,0.3c0.2,0,0,0.3,0,0.3c-0.6-0.1-1.3-0.1-1.9,0h-2.1c-0.2,0-0.2-0.2,0-0.3c0.5,0,1-0.1,1.5-0.3
			c0.6-0.3,0.8-0.6,3.2-6.3c2.3-5.4,2.1-5.8,1.8-6.2c-0.5-0.2-1-0.3-1.5-0.3c-0.2,0,0-0.3,0-0.3c0.3,0,1.6,0.2,2.3,0.2h1.1
			c0.1,0,0.2,0.1,0.2,0.2c0,0,0,0,0,0c0.2,2.1,0.5,7.3,0.8,11h0.2c2.1-3.4,5-8.1,6.8-11l0.2-0.2h1.3c0.6,0,1.2,0,1.8-0.2
			c0.2,0,0.2,0.2,0,0.3C91.1,80.8,90.5,80.8,89.9,81"/>
		<path class="st1" d="M96.7,86.2c-1.6,0-4.1,4.2-4.1,5.8c0,0.6,0.3,1,0.6,1c0.6-0.1,1.1-0.5,1.5-1c1.2-1.6,2.1-3.3,2.6-5.2
			C97.4,86.7,97.2,86.4,96.7,86.2L96.7,86.2 M97.1,91.7c-0.3,1-0.3,1.3,0,1.3c0.5,0,1.5-1.3,1.8-1.3l0,0c-0.6,1.1-1.9,2.4-2.8,2.4
			c-0.2,0-0.5-0.1-0.5-0.4c0,0,0-0.1,0-0.1v-0.2c0-0.5,0.1-1,0.3-1.5l0.3-1.1c0,0-0.2-0.2-0.2,0c-1.1,1.9-2.4,3.2-3.4,3.2
			c-0.7,0-1.3-0.6-1.3-1.3c0,0,0-0.1,0-0.1l0,0c0-2.8,3.1-6.6,5.4-6.6c0.4,0,0.7,0.1,1,0.3c0.2,0,0.2,0.2,0.2,0
			c0.3-0.3,0.5-0.6,0.6-0.8c0.2-0.2,1,0,1,0.2L97.1,91.7z"/>
		<path class="st1" d="M105.2,87.5c-0.8,0-0.6-1.3-1.6-1.3c-0.6,0.1-1,0.6-1,1.1c0,1.1,1.9,3.1,1.9,4.5c-0.1,1.4-1.4,2.4-2.8,2.3
			c-0.9,0.1-1.7-0.4-1.9-1.3c0-0.3,0.3-0.6,0.6-0.6l0,0c1,0,0.6,1.6,1.9,1.6c0.5,0,1-0.8,1-1.3c0-1.1-1.8-2.8-1.8-4.2
			c0.1-1.4,1.2-2.4,2.6-2.4c0.8,0,1.6,0.6,1.6,1.1C106,87.2,105.7,87.5,105.2,87.5"/>
		<path class="st1" d="M111.3,87.5c-0.8,0-0.6-1.3-1.6-1.3c-0.6,0.1-1,0.6-1,1.1c0,1.1,1.9,3.1,1.9,4.5c-0.1,1.4-1.4,2.4-2.8,2.3
			c-0.9,0.1-1.7-0.4-1.9-1.3c0-0.3,0.3-0.6,0.6-0.6l0,0c1,0,0.6,1.6,1.9,1.6c0.5,0,1-0.8,1-1.3c0-1.1-1.8-2.8-1.8-4.2
			c0.1-1.4,1.2-2.4,2.6-2.4c0.8,0,1.6,0.6,1.6,1.1C111.9,87.3,111.6,87.5,111.3,87.5"/>
		<path class="st1" d="M117,83.5c-0.3,0-0.6-0.2-0.6-0.5v-0.2c0-0.6,0.4-1.1,1-1.1c0.3,0,0.6,0.3,0.6,0.6l0,0
			C117.9,82.9,117.5,83.3,117,83.5 M113.8,94.2c-0.8,0-1-0.8-0.5-1.8l1.9-4.4c0.5-1,0.3-1.3,0-1.3c-0.8,0.4-1.4,0.9-1.9,1.6h-0.2
			c0.5-1.3,1.6-2.3,2.9-2.6c1,0,1,1.1,0.2,3.1l-1.5,3.1c-0.5,0.8-0.3,1.1,0.2,1.1c0.5,0,1.8-1.3,2.1-1.3c0,0,0.2,0,0,0.2
			C116.8,92.1,114.9,94.2,113.8,94.2"/>
		<path class="st1" d="M127.4,94.2c-0.6,0-1-0.5-0.5-1.8l1.5-3.9c0.6-1.5,0.5-1.8,0.2-1.8c-0.8,0-2.4,2.6-5,7.1
			c0,0.2-0.5,0.2-0.6,0.2c-0.3,0-0.6,0-0.5-0.2l2.3-5.8c0.3-0.6,0.5-1.3,0.2-1.3c-1,0-2.4,2.6-5,7.1c0,0.2-0.3,0.2-0.6,0.2
			c-0.3,0-0.6,0-0.5-0.2l2.1-5.8c0.3-0.8,0.3-1.3,0-1.3c-0.6,0-1.3,0.6-2.1,1.6h-0.2v-0.2c0.5-1.3,1.6-2.3,2.9-2.6
			c0.3,0,0.6,0.5,0.6,0.8c-0.3,1.9-1,3.8-1.9,5.5c0,0,0.2,0.2,0.2,0c2.4-4.5,3.7-6.5,4.9-6.5c0.3,0,0.6,0.3,0.6,1
			c-0.3,1.9-1,3.8-1.9,5.5c0,0,0.2,0.2,0.2,0c2.4-4.5,3.9-6.3,5-6.3c1.1,0,0.8,1.5,0.3,2.9l-1.3,3.1c-0.3,0.8-0.2,1.1,0.2,1.1
			c0.7-0.4,1.4-0.8,2.1-1.3l0,0C130.5,92.1,128.5,94.2,127.4,94.2"/>
		<path class="st1" d="M136.5,86.1c-1.5,0-3.2,4.4-3.2,6.5c0,0.8,0.3,1.3,1,1.3c1.5,0,3.2-4.4,3.2-6.5c0.2-0.5-0.1-1.1-0.6-1.2
			C136.7,86.1,136.6,86.1,136.5,86.1 M134.2,94.2c-1.3,0-2.1-0.8-2.1-2.6c0-2.3,1.8-5.8,4.4-5.8c1.3,0,2.1,0.8,2.1,2.6
			C138.7,90.6,137,94.2,134.2,94.2"/>
		<path class="st1" d="M151.9,80.9c-0.4-0.1-0.8,0.1-1.1,0.3c-0.2,0-0.3,0.3-1.8,5v0.3c0.5,0.1,1,0.1,1.5,0c2,0,3.6-1.6,3.7-3.6
			v-0.2C154.1,81.9,153.5,80.9,151.9,80.9 M150.3,87h-1.5c-0.2,0-0.2,0.2-0.2,0.3c-1.3,4.7-1.5,5.7-1.3,5.8c0.3,0.3,0.6,0.3,1.9,0.3
			c2.2,0,4-1.7,4.2-3.9c-0.1-1.6-1.5-2.7-3-2.6C150.4,87,150.3,87,150.3,87L150.3,87 M151.9,86.7L151.9,86.7
			c2.4,0.5,3.2,1.9,3.2,3.2c0,1.9-2.3,4.2-6.2,4.2h-5.2c-0.2,0-0.2-0.2,0-0.3c0.5,0,1-0.1,1.5-0.3c0.2,0,0.5-0.6,2.1-6.3
			c1.6-5.7,1.8-6.2,1.6-6.3c-0.3-0.2-0.8-0.2-1.1-0.3c-0.2,0-0.2-0.3,0-0.3c0.5,0,1.9,0.2,2.9,0.2s1.3-0.2,1.8-0.2
			c2.1,0,3.4,1.1,3.4,2.6C155.8,84.6,154.3,86.1,151.9,86.7"/>
		<path class="st1" d="M161.4,86.1c-1.5,0-3.2,4.4-3.2,6.5c0,0.8,0.3,1.3,1,1.3c1.5,0,3.2-4.4,3.2-6.5c0.2-0.5-0.1-1.1-0.6-1.2
			C161.7,86.1,161.6,86.1,161.4,86.1 M159.2,94.2c-1.3,0-2.1-0.8-2.1-2.6c0-2.3,1.8-5.8,4.4-5.8c1.3,0,2.1,0.8,2.1,2.6
			C163.7,90.6,161.9,94.2,159.2,94.2"/>
		<path class="st1" d="M170.5,86.7h-1.9c-0.6,1.8-1.5,3.9-1.9,5.4c-0.3,0.8,0,1.1,0.2,1.1c0.6,0,2.1-1.8,2.3-1.8c0,0,0.2,0,0,0.2
			c-0.6,1-2.1,2.9-3.2,2.9c-0.5,0-1.1-0.5-0.6-1.8c0.6-1.8,1.5-4.1,2.1-5.8h-1.5c-0.2,0-0.2-0.6,0-0.5h1.6c0.2-0.6,0.4-1.1,0.6-1.6
			c0-0.2,0.2-0.2,0.3-0.2c0.3,0,1.1,0.2,1.1,0.3c-0.2,0.3-0.3,0.8-0.6,1.5h1.8C170.9,86.2,170.9,86.7,170.5,86.7"/>
		<path class="st1" d="M176.9,86.7c-0.6-0.1-1.3-0.1-1.9,0c-0.6,1.8-1.5,3.9-1.9,5.4c-0.3,0.8,0,1.1,0.2,1.1c0.6,0,2.1-1.8,2.3-1.8
			c0,0,0.2,0,0,0.2c-0.6,1-2.1,2.9-3.2,2.9c-0.5,0-1.1-0.5-0.6-1.8c0.6-1.8,1.5-4.1,2.1-5.8h-1.5c-0.2,0-0.2-0.6,0-0.5h1.6
			c0.2-0.6,0.4-1.1,0.6-1.6c0-0.2,0.2-0.2,0.3-0.2c0.3,0,1.1,0.2,1.1,0.3c-0.2,0.3-0.3,0.8-0.6,1.5h1.8
			C177,86.2,177.2,86.7,176.9,86.7"/>
		<path class="st1" d="M183.5,91.7c-0.3,1-0.2,1.1,0,1.1c0.5,0,1.8-1.3,1.9-1.3l0,0c-0.2,0.3-2.1,2.4-3.1,2.4c-0.8,0-0.8-1,1.1-5.2
			c0,0-0.2-0.2-0.2,0c-1.5,2.4-3.1,5.2-4.7,5.2c-0.5,0-1-0.3-1-0.6v-0.2c0.1-0.7,0.3-1.5,0.6-2.1l1.5-3.1c0.5-1,0.5-1.3,0-1.3
			c-0.6,0-1.3,0.8-1.6,1c-0.1,0-0.2-0.1-0.2-0.2c0,0,0,0,0,0c0.6-0.8,1.6-1.9,2.6-1.9c0.8,0,1,0.8,0.3,2.3l-1.5,3.4
			c-0.5,1.3-0.5,1.8,0,1.8c1,0,3.1-2.8,5-7.3h0.3c0.3,0,1,0.2,1,0.3L183.5,91.7z"/>
		<path class="st1" d="M193.4,87.9c-0.8,0-0.5-1-1-1S191,88,188.4,94c0,0.2-0.5,0.2-0.6,0.2c-0.3,0-0.6,0-0.5-0.2
			c0.8-2.1,1.4-4.2,1.9-6.3c0-0.3-0.2-0.5-0.3-0.5c-0.6,0-1.3,1.5-1.5,1.5h-0.2c0.5-1.1,1.5-2.8,2.4-2.8c0.5,0,0.6,0.6,0.6,1.1
			c-0.2,1.3-0.5,2.6-1,3.9c0,0,0.2,0.2,0.2,0c1.5-3.6,2.6-5.2,3.7-5.2c0.5,0,0.9,0.5,1,1l0,0C194.2,87.2,193.9,87.7,193.4,87.9"/>
		<path class="st1" d="M199.2,86.2c-1.6,0-4.1,4.2-4.1,5.8c0,0.6,0.3,1,0.6,1c0.6-0.1,1.1-0.5,1.5-1c1.2-1.6,2.1-3.3,2.6-5.2
			C200,86.7,199.7,86.4,199.2,86.2L199.2,86.2 M199.6,91.7c-0.3,1-0.3,1.3,0,1.3c0.5,0,1.5-1.3,1.8-1.3l0,0
			c-0.6,1.1-1.9,2.4-2.8,2.4c-0.2,0-0.5-0.1-0.5-0.4c0,0,0-0.1,0-0.1v-0.2c0-0.5,0.1-1,0.3-1.5l0.3-1.1c0,0-0.2-0.2-0.2,0
			c-1.1,1.9-2.4,3.2-3.4,3.2c-0.7,0-1.3-0.6-1.3-1.3c0,0,0-0.1,0-0.1l0,0c0-2.8,3.1-6.6,5.4-6.6c0.4,0,0.7,0.1,1,0.3
			c0.2,0,0.2,0.2,0.2,0c0.3-0.3,0.5-0.6,0.6-0.8c0.2-0.2,1,0,0.8,0.2L199.6,91.7z"/>
	</g>
</g>
</svg>
